<svg version="1.1" viewBox="0.0 0.0 960.0 540.0" fill="none" stroke="none" stroke-linecap="square" stroke-miterlimit="10" xmlns:xlink="http://www.w3.org/1999/xlink" xmlns="http://www.w3.org/2000/svg"><clipPath id="g3ab45da4c75_0_0.0"><path d="m0 0l960.0 0l0 540.0l-960.0 0l0 -540.0z" clip-rule="nonzero"/></clipPath><g clip-path="url(#g3ab45da4c75_0_0.0)"><path fill="#ffffff" d="m0 0l960.0 0l0 540.0l-960.0 0z" fill-rule="evenodd"/><defs><linearGradient id="g3ab45da4c75_0_0.1" gradientUnits="userSpaceOnUse" gradientTransform="matrix(32.56776944012194 0.0 0.0 32.56776944012194 0.0 0.0)" spreadMethod="pad" x1="-8.290405042826569" y1="8.290375450787085" x2="14.738443706777824" y2="31.31930793956704"><stop offset="0.0" stop-color="#4285f4"/><stop offset="1.0" stop-color="#737373"/></linearGradient></defs><path fill="url(#g3ab45da4c75_0_0.1)" d="m0 0l960.0 0l0 540.0l-960.0 0z" fill-rule="evenodd"/><path fill="#ffffff" d="m240.22885 246.03375l0 1.28125l-16.96875 0l0 45.625l-1.40625 0l0 -45.625l-16.953125 0l0 -1.28125l35.328125 0zm8.194443 46.90625l0 -49.734375l1.34375 0l0 20.8125l0.1875 0q1.015625 -2.5 3.703125 -4.1875q2.6874847 -1.703125 6.9843597 -1.703125q5.6875 0 8.6875 3.296875q3.015625 3.296875 3.015625 9.6875l0 21.828125l-1.34375 0l0 -21.5625q0 -12.03125 -10.484375 -12.03125q-4.5468597 0 -7.6562347 2.40625q-3.09375 2.390625 -3.09375 6.875l0 24.3125l-1.34375 0zm48.62593 0.828125q-6.78125 0 -10.53125 -4.5625q-3.734375 -4.578125 -3.734375 -13.296875q0 -8.625 3.671875 -13.203125q3.6875 -4.578125 10.28125 -4.578125q4.09375 0 7.234375 2.078125q3.140625 2.078125 4.859375 5.921875q1.734375 3.84375 1.734375 8.953125l0 0.578125l-26.3125 0l0 1.921875q0 6.90625 3.390625 10.9375q3.390625 4.03125 9.40625 4.03125q4.296875 0 7.265625 -2.109375q2.984375 -2.109375 4.515625 -6.265625l1.15625 0.453125q-1.53125 4.28125 -4.859375 6.71875q-3.328125 2.421875 -8.078125 2.421875zm-12.796875 -19.328125l24.84375 0l0 -0.25q0 -4.484375 -1.546875 -7.84375q-1.53125 -3.359375 -4.3125 -5.171875q-2.78125 -1.828125 -6.5 -1.828125q-5.890625 0 -9.1875 4.03125q-3.296875 4.03125 -3.296875 10.9375l0 0.125z" fill-rule="nonzero"/><path fill="#ffffff" d="m344.08926 292.94l13.390625 -35.203125l-2.5 -7.171875l-6.28125 0l0 -7.359375l5.640625 0q4.03125 0 6.109375 1.453125q2.078125 1.4375 3.359375 5.140625l12.359375 35.78125l4.53125 0l0 7.359375l-3.90625 0q-4.03125 0 -6.109375 -1.4375q-2.078125 -1.4375 -3.359375 -5.15625l-3.0 -8.703125l-2.5 -9.015625l-0.703125 0l-2.5625 9.015625l-5.5 15.296875l-8.96875 0z" fill-rule="nonzero"/><path fill="#ffffff" d="m504.41782 291.65875l0 1.28125l-23.359375 0l0 -46.90625l1.40625 0l0 45.625l21.953125 0zm16.389069 2.109375q-5.25 0 -8.109375 -2.484375q-2.84375 -2.5 -2.84375 -7.109375q0 -4.609375 2.9375 -7.171875q2.953125 -2.5625 9.859375 -2.5625l9.546875 0l0 -4.921875q0 -5.25 -2.4375 -7.703125q-2.4375 -2.46875 -7.296875 -2.46875q-3.84375 0 -6.40625 1.53125q-2.546875 1.53125 -3.890625 4.859375l-1.15625 -0.515625q1.46875 -3.453125 4.21875 -5.265625q2.75 -1.828125 7.234375 -1.828125q5.5 0 8.28125 2.84375q2.796875 2.84375 2.796875 8.28125l0 22.46875l5.625 0l0 1.21875l-5.046875 0q-1.03125 0 -1.484375 -0.4375q-0.4375 -0.453125 -0.4375 -1.484375l0 -3.265625l-0.203125 0q-3.1875 6.015625 -11.1875 6.015625zm0 -1.21875q4.859375 0 8.125 -2.484375q3.265625 -2.5 3.265625 -7.046875l0 -7.421875l-9.484375 0q-5.8125 0 -8.609375 2.015625q-2.78125 2.015625 -2.78125 5.59375l0 1.984375q0 3.53125 2.59375 5.453125q2.59375 1.90625 6.890625 1.90625zm26.879944 0.390625l0 -33.984375l1.34375 0l0 5.0625l0.1875 0q1.015625 -2.5 3.703125 -4.1875q2.6875 -1.703125 6.984375 -1.703125q5.6875 0 8.6875 3.296875q3.015625 3.296875 3.015625 9.6875l0 21.828125l-1.34375 0l0 -21.5625q0 -12.03125 -10.484375 -12.03125q-4.546875 0 -7.65625 2.40625q-3.09375 2.390625 -3.09375 6.875l0 24.3125l-1.34375 0zm47.92279 14.265625q-7.21875 0 -10.71875 -2.34375q-3.484375 -2.328125 -3.484375 -6.421875q0 -3.0 1.6875 -5.046875q1.703125 -2.046875 4.90625 -3.078125l0 -0.1875q-3.515625 -1.09375 -3.515625 -4.421875q0 -2.171875 1.59375 -3.609375q1.59375 -1.4375 4.09375 -2.21875l0 -0.1875q-2.875 -1.28125 -4.484375 -3.875q-1.59375 -2.59375 -1.59375 -6.296875q0 -5.1875 3.140625 -8.28125q3.140625 -3.109375 8.4375 -3.109375q4.484375 0 7.5 2.234375l0 -3.328125q0 -0.953125 0.40625 -1.375q0.421875 -0.421875 1.375 -0.421875l6.921875 0l0 1.21875l-7.484375 0l0 5.0625q2.875 3.0625 2.875 8.0q0 5.1875 -3.171875 8.265625q-3.171875 3.0625 -8.421875 3.0625q-1.40625 0 -3.765625 -0.453125q-6.140625 1.53125 -6.140625 5.25q0 3.71875 5.875 3.71875l9.09375 0q5.640625 0 8.28125 2.078125q2.65625 2.078125 2.65625 5.859375q0 4.984375 -4.125 7.4375q-4.125 2.46875 -11.9375 2.46875zm0.0625 -27.578125q4.6875 0 7.375 -2.53125q2.6875 -2.53125 2.6875 -6.359375l0 -2.5q0 -3.90625 -2.6875 -6.390625q-2.6875 -2.5 -7.375 -2.5q-4.671875 0 -7.359375 2.5q-2.6875 2.484375 -2.6875 6.390625l0 2.5q0 3.90625 2.71875 6.40625q2.734375 2.484375 7.328125 2.484375zm1.609375 26.375q6.015625 0 9.5 -2.15625q3.484375 -2.140625 3.484375 -6.546875q0 -3.265625 -2.234375 -4.953125q-2.234375 -1.703125 -7.484375 -1.703125l-10.4375 0q-3.390625 0.890625 -5.34375 2.8125q-1.953125 1.921875 -1.953125 5.046875q0 3.390625 3.03125 5.4375q3.046875 2.0625 8.171875 2.0625l3.265625 0zm33.91571 -12.234375q-5.6875 0 -8.703125 -3.296875q-3.0 -3.296875 -3.0 -9.6875l0 -21.828125l1.34375 0l0 21.5625q0 12.03125 10.484375 12.03125q4.546875 0 7.640625 -2.390625q3.109375 -2.40625 3.109375 -6.875l0 -24.328125l1.359375 0l0 33.984375l-1.359375 0l0 -5.0625l-0.1875 0q-1.015625 2.5 -3.703125 4.203125q-2.6875 1.6875 -6.984375 1.6875zm34.313416 0q-5.25 0 -8.109375 -2.484375q-2.84375 -2.5 -2.84375 -7.109375q0 -4.609375 2.9375 -7.171875q2.953125 -2.5625 9.859375 -2.5625l9.546875 0l0 -4.921875q0 -5.25 -2.4375 -7.703125q-2.4375 -2.46875 -7.296875 -2.46875q-3.84375 0 -6.40625 1.53125q-2.546875 1.53125 -3.890625 4.859375l-1.15625 -0.515625q1.46875 -3.453125 4.21875 -5.265625q2.75 -1.828125 7.234375 -1.828125q5.5 0 8.28125 2.84375q2.796875 2.84375 2.796875 8.28125l0 22.46875l5.625 0l0 1.21875l-5.046875 0q-1.03125 0 -1.484375 -0.4375q-0.4375 -0.453125 -0.4375 -1.484375l0 -3.265625l-0.203125 0q-3.1875 6.015625 -11.1875 6.015625zm0 -1.21875q4.859375 0 8.125 -2.484375q3.265625 -2.5 3.265625 -7.046875l0 -7.421875l-9.484375 0q-5.8125 0 -8.609375 2.015625q-2.78125 2.015625 -2.78125 5.59375l0 1.984375q0 3.53125 2.59375 5.453125q2.59375 1.90625 6.890625 1.90625zm37.42682 14.65625q-7.21875 0 -10.71875 -2.34375q-3.484375 -2.328125 -3.484375 -6.421875q0 -3.0 1.6875 -5.046875q1.703125 -2.046875 4.90625 -3.078125l0 -0.1875q-3.515625 -1.09375 -3.515625 -4.421875q0 -2.171875 1.59375 -3.609375q1.59375 -1.4375 4.09375 -2.21875l0 -0.1875q-2.875 -1.28125 -4.484375 -3.875q-1.59375 -2.59375 -1.59375 -6.296875q0 -5.1875 3.140625 -8.28125q3.140625 -3.109375 8.4375 -3.109375q4.484375 0 7.5 2.234375l0 -3.328125q0 -0.953125 0.40625 -1.375q0.421875 -0.421875 1.375 -0.421875l6.921875 0l0 1.21875l-7.484375 0l0 5.0625q2.875 3.0625 2.875 8.0q0 5.1875 -3.171875 8.265625q-3.171875 3.0625 -8.421875 3.0625q-1.40625 0 -3.765625 -0.453125q-6.140625 1.53125 -6.140625 5.25q0 3.71875 5.875 3.71875l9.09375 0q5.640625 0 8.28125 2.078125q2.65625 2.078125 2.65625 5.859375q0 4.984375 -4.125 7.4375q-4.125 2.46875 -11.9375 2.46875zm0.0625 -27.578125q4.6875 0 7.375 -2.53125q2.6875 -2.53125 2.6875 -6.359375l0 -2.5q0 -3.90625 -2.6875 -6.390625q-2.6875 -2.5 -7.375 -2.5q-4.671875 0 -7.359375 2.5q-2.6875 2.484375 -2.6875 6.390625l0 2.5q0 3.90625 2.71875 6.40625q2.734375 2.484375 7.328125 2.484375zm1.609375 26.375q6.015625 0 9.5 -2.15625q3.484375 -2.140625 3.484375 -6.546875q0 -3.265625 -2.234375 -4.953125q-2.234375 -1.703125 -7.484375 -1.703125l-10.4375 0q-3.390625 0.890625 -5.34375 2.8125q-1.953125 1.921875 -1.953125 5.046875q0 3.390625 3.03125 5.4375q3.046875 2.0625 8.171875 2.0625l3.265625 0zm34.10321 -12.234375q-6.78125 0 -10.53125 -4.5625q-3.734375 -4.578125 -3.734375 -13.296875q0 -8.625 3.671875 -13.203125q3.6875 -4.578125 10.28125 -4.578125q4.09375 0 7.234375 2.078125q3.140625 2.078125 4.859375 5.921875q1.734375 3.84375 1.734375 8.953125l0 0.578125l-26.3125 0l0 1.921875q0 6.90625 3.390625 10.9375q3.390625 4.03125 9.40625 4.03125q4.296875 0 7.265625 -2.109375q2.984375 -2.109375 4.515625 -6.265625l1.15625 0.453125q-1.53125 4.28125 -4.859375 6.71875q-3.328125 2.421875 -8.078125 2.421875zm-12.796875 -19.328125l24.84375 0l0 -0.25q0 -4.484375 -1.546875 -7.84375q-1.53125 -3.359375 -4.3125 -5.171875q-2.78125 -1.828125 -6.5 -1.828125q-5.890625 0 -9.1875 4.03125q-3.296875 4.03125 -3.296875 10.9375l0 0.125z" fill-rule="nonzero"/><path fill="#000000" fill-opacity="0.0" d="m355.43292 248.73102l108.37796 0l0 77.5748l-108.37796 0z" fill-rule="evenodd"/><path fill="#ffffff" d="m394.6416 304.436q-4.125 0 -6.9375 -2.078125q-2.8125 -2.09375 -3.828125 -6.171875q-1.0 -4.09375 0.21875 -9.796875q1.234375 -5.8125 4.078125 -9.953125q2.859375 -4.15625 6.859375 -6.296875q4.0 -2.140625 8.765625 -2.140625q4.703125 0 7.65625 2.09375q2.96875 2.09375 4.09375 6.078125l-6.671875 3.359375q-0.46875 -2.3125 -2.03125 -3.671875q-1.546875 -1.375 -4.421875 -1.375q-3.75 0 -6.40625 2.28125q-2.640625 2.28125 -3.5625 6.640625l-1.203125 5.625q-0.921875 4.359375 0.75 6.640625q1.6875 2.28125 5.484375 2.28125q3.0625 0 5.375 -1.4375q2.328125 -1.4375 2.890625 -4.078125l0.421875 -1.96875l-6.625 0l1.28125 -6.09375l13.59375 0l-4.125 19.4375l-6.203125 0l1.1875 -5.5625l-0.234375 0q-1.03125 2.734375 -3.796875 4.46875q-2.765625 1.71875 -6.609375 1.71875zm52.990814 -35.8125l-1.390625 6.484375l-9.734375 0l-6.09375 28.703125l-7.296875 0l6.09375 -28.703125l-9.75 0l1.390625 -6.484375l26.78125 0z" fill-rule="nonzero"/></g></svg>