<svg version="1.1" viewBox="0.0 0.0 960.0 540.0" fill="none" stroke="none" stroke-linecap="square" stroke-miterlimit="10" xmlns:xlink="http://www.w3.org/1999/xlink" xmlns="http://www.w3.org/2000/svg"><clipPath id="g3ab45da4c75_0_0.0"><path d="m0 0l960.0 0l0 540.0l-960.0 0l0 -540.0z" clip-rule="nonzero"/></clipPath><g clip-path="url(#g3ab45da4c75_0_0.0)"><path fill="#ffffff" d="m0 0l960.0 0l0 540.0l-960.0 0z" fill-rule="evenodd"/><defs><linearGradient id="g3ab45da4c75_0_0.1" gradientUnits="userSpaceOnUse" gradientTransform="matrix(32.56776944012194 0.0 0.0 32.56776944012194 0.0 0.0)" spreadMethod="pad" x1="-8.290405042826569" y1="8.290375450787085" x2="14.738443706777824" y2="31.31930793956704"><stop offset="0.0" stop-color="#4285f4"/><stop offset="1.0" stop-color="#737373"/></linearGradient></defs><path fill="url(#g3ab45da4c75_0_0.1)" d="m0 0l960.0 0l0 540.0l-960.0 0z" fill-rule="evenodd"/><path fill="#ffffff" d="m227.42136 246.03375l0 3.390625l-15.875 0l0 43.515625l-3.765625 0l0 -43.515625l-15.875 0l0 -3.390625l35.515625 0zm7.548691 46.90625l0 -49.734375l3.65625 0l0 20.75l0.25 0q1.21875 -2.828125 3.71875 -4.484375q2.5 -1.671875 6.46875 -1.671875q5.5 0 8.562485 3.390625q3.078125 3.390625 3.078125 9.671875l0 22.078125l-3.640625 0l0 -21.375q0 -10.5 -8.968735 -10.5q-3.96875 0 -6.71875 2.015625q-2.75 2.015625 -2.75 5.734375l0 24.125l-3.65625 0zm50.120804 0.828125q-4.546875 0 -7.9375 -2.140625q-3.390625 -2.140625 -5.21875 -6.203125q-1.828125 -4.0625 -1.828125 -9.703125q0 -8.375 4.0 -13.140625q4.0 -4.78125 10.859375 -4.78125q4.34375 0 7.609375 2.125q3.265625 2.109375 5.015625 5.921875q1.765625 3.796875 1.765625 8.859375l0 1.65625l-25.40625 0l0 1.796875q0 5.625 3.0 9.015625q3.015625 3.390625 8.328125 3.390625q3.71875 0 6.40625 -1.8125q2.6875 -1.828125 4.09375 -5.21875l2.6875 1.796875q-1.59375 3.890625 -5.09375 6.171875q-3.484375 2.265625 -8.28125 2.265625zm-11.140625 -20.21875l21.5 0l0 -0.515625q0 -5.5 -2.875 -8.828125q-2.875 -3.328125 -7.609375 -3.328125q-5.0 0 -8.015625 3.421875q-3.0 3.421875 -3.0 9.0l0 0.25z" fill-rule="nonzero"/><path fill="#ffffff" d="m332.44128 292.94l13.390625 -35.203125l-2.5 -7.171875l-6.28125 0l0 -7.359375l5.640625 0q4.03125 0 6.109375 1.453125q2.078125 1.4375 3.359375 5.140625l12.359375 35.78125l4.53125 0l0 7.359375l-3.90625 0q-4.03125 0 -6.109375 -1.4375q-2.078125 -1.4375 -3.359375 -5.15625l-3.0 -8.703125l-2.5 -9.015625l-0.703125 0l-2.5625 9.015625l-5.5 15.296875l-8.96875 0z" fill-rule="nonzero"/><path fill="#ffffff" d="m470.48856 292.94l0 -44.671875l3.84375 0l0 41.34375l21.890625 0l0 3.328125l-25.734375 0zm60.743683 0q-2.234375 0 -3.203125 -1.078125q-0.953125 -1.09375 -1.078125 -2.953125l0 -1.15625l-0.328125 0q-1.09375 2.625 -3.59375 4.296875q-2.484375 1.65625 -6.765625 1.65625q-5.1875 0 -8.171875 -2.515625q-2.96875 -2.53125 -2.96875 -7.140625q0 -2.1875 0.734375 -3.9375q0.734375 -1.765625 2.359375 -2.984375q1.640625 -1.21875 4.203125 -1.890625q2.5625 -0.671875 6.265625 -0.671875l8.0625 0l0 -4.03125q0 -4.15625 -2.28125 -6.203125q-2.265625 -2.046875 -6.296875 -2.046875q-6.78125 0 -9.46875 5.4375l-2.5 -1.796875q1.28125 -2.875 4.3125 -4.828125q3.046875 -1.953125 7.859375 -1.953125q5.625 0 8.828125 2.921875q3.203125 2.90625 3.203125 8.09375l0 19.578125l4.921875 0l0 3.203125l-4.09375 0zm-14.40625 -2.296875q2.125 0 3.90625 -0.515625q1.796875 -0.515625 3.140625 -1.4375q1.34375 -0.9375 2.109375 -2.28125q0.765625 -1.34375 0.765625 -3.0l0 -6.078125l-8.0625 0q-5.1875 0 -7.453125 1.5625q-2.265625 1.5625 -2.265625 4.25l0 1.671875q0 2.875 2.140625 4.359375q2.140625 1.46875 5.71875 1.46875zm29.118713 2.296875l0 -33.03125l3.65625 0l0 5.125l0.25 0q0.96875 -2.296875 3.234375 -4.09375q2.28125 -1.796875 6.4375 -1.796875q5.375 0 8.34375 3.234375q2.984375 3.234375 2.984375 9.25l0 21.3125l-3.65625 0l0 -20.671875q0 -5.125 -2.203125 -7.484375q-2.203125 -2.375 -6.4375 -2.375q-1.71875 0 -3.328125 0.453125q-1.59375 0.453125 -2.84375 1.34375q-1.25 0.890625 -2.015625 2.265625q-0.765625 1.375 -0.765625 3.234375l0 23.234375l-3.65625 0zm66.88428 3.90625q0 4.984375 -4.09375 7.3125q-4.09375 2.34375 -12.03125 2.34375q-7.6875 0 -11.078125 -2.171875q-3.390625 -2.171875 -3.390625 -6.078125q0 -2.8125 1.53125 -4.453125q1.546875 -1.625 4.296875 -2.453125l0 -0.515625q-3.140625 -1.21875 -3.140625 -4.484375q0 -2.4375 1.65625 -3.734375q1.671875 -1.3125 4.109375 -1.953125l0 -0.265625q-2.9375 -1.28125 -4.578125 -3.828125q-1.625 -2.5625 -1.625 -6.15625q0 -2.5 0.859375 -4.578125q0.859375 -2.078125 2.421875 -3.578125q1.578125 -1.5 3.8125 -2.296875q2.25 -0.8125 5.0 -0.8125q3.96875 0 6.78125 1.671875l0 -1.34375q0 -1.546875 0.734375 -2.46875q0.734375 -0.921875 2.40625 -0.921875l6.453125 0l0 3.203125l-7.546875 0l0 3.0q1.59375 1.46875 2.453125 3.515625q0.875 2.046875 0.875 4.609375q0 2.5 -0.875 4.546875q-0.859375 2.046875 -2.453125 3.5625q-1.59375 1.5 -3.84375 2.296875q-2.234375 0.796875 -4.984375 0.796875q-0.90625 0 -1.671875 -0.0625q-0.765625 -0.0625 -1.65625 -0.25q-2.046875 0.5 -3.59375 1.53125q-1.53125 1.015625 -1.53125 2.75q0 2.875 5.375 2.875l7.875 0q6.015625 0 8.734375 2.28125q2.71875 2.265625 2.71875 6.109375zm-3.453125 0.125q0 -2.375 -1.765625 -3.75q-1.75 -1.375 -6.234375 -1.375l-10.8125 0q-2.25 0.703125 -3.5 2.078125q-1.234375 1.390625 -1.234375 3.625q0 2.625 2.140625 4.3125q2.140625 1.703125 6.5 1.703125l4.28125 0q4.921875 0 7.765625 -1.640625q2.859375 -1.625 2.859375 -4.953125zm-12.796875 -18.234375q4.15625 0 6.234375 -2.046875q2.078125 -2.046875 2.078125 -5.25l0 -2.109375q0 -3.265625 -2.078125 -5.28125q-2.078125 -2.015625 -6.234375 -2.015625q-4.09375 0 -6.1875 2.015625q-2.078125 2.015625 -2.078125 5.28125l0 2.109375q0 3.203125 2.109375 5.25q2.125 2.046875 6.15625 2.046875zm46.978027 9.078125l-0.265625 0q-0.953125 2.3125 -3.234375 4.109375q-2.265625 1.78125 -6.421875 1.78125q-5.375 0 -8.359375 -3.234375q-2.96875 -3.234375 -2.96875 -9.25l0 -21.3125l3.640625 0l0 20.671875q0 5.125 2.203125 7.5q2.21875 2.359375 6.4375 2.359375q1.734375 0 3.328125 -0.4375q1.609375 -0.453125 2.84375 -1.34375q1.25 -0.90625 2.015625 -2.28125q0.78125 -1.375 0.78125 -3.234375l0 -23.234375l3.640625 0l0 33.03125l-3.640625 0l0 -5.125zm41.274963 5.125q-2.234375 0 -3.203125 -1.078125q-0.953125 -1.09375 -1.078125 -2.953125l0 -1.15625l-0.328125 0q-1.09375 2.625 -3.59375 4.296875q-2.484375 1.65625 -6.765625 1.65625q-5.1875 0 -8.171875 -2.515625q-2.96875 -2.53125 -2.96875 -7.140625q0 -2.1875 0.734375 -3.9375q0.734375 -1.765625 2.359375 -2.984375q1.640625 -1.21875 4.203125 -1.890625q2.5625 -0.671875 6.265625 -0.671875l8.0625 0l0 -4.03125q0 -4.15625 -2.28125 -6.203125q-2.265625 -2.046875 -6.296875 -2.046875q-6.78125 0 -9.46875 5.4375l-2.5 -1.796875q1.28125 -2.875 4.3125 -4.828125q3.046875 -1.953125 7.859375 -1.953125q5.625 0 8.828125 2.921875q3.203125 2.90625 3.203125 8.09375l0 19.578125l4.921875 0l0 3.203125l-4.09375 0zm-14.40625 -2.296875q2.125 0 3.90625 -0.515625q1.796875 -0.515625 3.140625 -1.4375q1.34375 -0.9375 2.109375 -2.28125q0.765625 -1.34375 0.765625 -3.0l0 -6.078125l-8.0625 0q-5.1875 0 -7.453125 1.5625q-2.265625 1.5625 -2.265625 4.25l0 1.671875q0 2.875 2.140625 4.359375q2.140625 1.46875 5.71875 1.46875zm57.60309 6.203125q0 4.984375 -4.09375 7.3125q-4.09375 2.34375 -12.03125 2.34375q-7.6875 0 -11.078125 -2.171875q-3.390625 -2.171875 -3.390625 -6.078125q0 -2.8125 1.53125 -4.453125q1.546875 -1.625 4.296875 -2.453125l0 -0.515625q-3.140625 -1.21875 -3.140625 -4.484375q0 -2.4375 1.65625 -3.734375q1.671875 -1.3125 4.109375 -1.953125l0 -0.265625q-2.9375 -1.28125 -4.578125 -3.828125q-1.625 -2.5625 -1.625 -6.15625q0 -2.5 0.859375 -4.578125q0.859375 -2.078125 2.421875 -3.578125q1.578125 -1.5 3.8125 -2.296875q2.25 -0.8125 5.0 -0.8125q3.96875 0 6.78125 1.671875l0 -1.34375q0 -1.546875 0.734375 -2.46875q0.734375 -0.921875 2.40625 -0.921875l6.453125 0l0 3.203125l-7.546875 0l0 3.0q1.59375 1.46875 2.453125 3.515625q0.875 2.046875 0.875 4.609375q0 2.5 -0.875 4.546875q-0.859375 2.046875 -2.453125 3.5625q-1.59375 1.5 -3.84375 2.296875q-2.234375 0.796875 -4.984375 0.796875q-0.90625 0 -1.671875 -0.0625q-0.765625 -0.0625 -1.65625 -0.25q-2.046875 0.5 -3.59375 1.53125q-1.53125 1.015625 -1.53125 2.75q0 2.875 5.375 2.875l7.875 0q6.015625 0 8.734375 2.28125q2.71875 2.265625 2.71875 6.109375zm-3.453125 0.125q0 -2.375 -1.765625 -3.75q-1.75 -1.375 -6.234375 -1.375l-10.8125 0q-2.25 0.703125 -3.5 2.078125q-1.234375 1.390625 -1.234375 3.625q0 2.625 2.140625 4.3125q2.140625 1.703125 6.5 1.703125l4.28125 0q4.921875 0 7.765625 -1.640625q2.859375 -1.625 2.859375 -4.953125zm-12.796875 -18.234375q4.15625 0 6.234375 -2.046875q2.078125 -2.046875 2.078125 -5.25l0 -2.109375q0 -3.265625 -2.078125 -5.28125q-2.078125 -2.015625 -6.234375 -2.015625q-4.09375 0 -6.1875 2.015625q-2.078125 2.015625 -2.078125 5.28125l0 2.109375q0 3.203125 2.109375 5.25q2.125 2.046875 6.15625 2.046875zm38.915527 14.96875q-6.921875 0 -10.859375 -4.5q-3.9375 -4.515625 -3.9375 -12.71875q0 -4.09375 1.015625 -7.328125q1.03125 -3.234375 2.921875 -5.4375q1.890625 -2.203125 4.578125 -3.390625q2.6875 -1.1875 5.953125 -1.1875q3.328125 0 5.953125 1.1875q2.625 1.1875 4.4375 3.359375q1.828125 2.171875 2.78125 5.1875q0.96875 3.0 0.96875 6.65625l0 1.59375l-24.765625 0l0 1.609375q0 5.3125 2.875 8.546875q2.890625 3.21875 8.078125 3.21875q3.640625 0 6.234375 -1.65625q2.59375 -1.671875 4.0 -4.9375l2.75 1.734375q-1.46875 3.65625 -4.796875 5.859375q-3.328125 2.203125 -8.1875 2.203125zm-0.328125 -31.484375q-2.4375 0 -4.390625 0.875q-1.9375 0.859375 -3.328125 2.390625q-1.375 1.53125 -2.140625 3.71875q-0.765625 2.171875 -0.765625 4.796875l0 0.375l20.859375 0l0 -0.515625q0 -5.375 -2.71875 -8.5q-2.71875 -3.140625 -7.515625 -3.140625z" fill-rule="nonzero"/><path fill="#000000" fill-opacity="0.0" d="m346.319 248.73102l108.37796 0l0 77.5748l-108.37796 0z" fill-rule="evenodd"/><path fill="#ffffff" d="m385.52768 304.436q-4.125 0 -6.9375 -2.078125q-2.8125 -2.09375 -3.828125 -6.171875q-1.0 -4.09375 0.21875 -9.796875q1.234375 -5.8125 4.078125 -9.953125q2.859375 -4.15625 6.859375 -6.296875q4.0 -2.140625 8.765625 -2.140625q4.703125 0 7.65625 2.09375q2.96875 2.09375 4.09375 6.078125l-6.671875 3.359375q-0.46875 -2.3125 -2.03125 -3.671875q-1.546875 -1.375 -4.421875 -1.375q-3.75 0 -6.40625 2.28125q-2.640625 2.28125 -3.5625 6.640625l-1.203125 5.625q-0.921875 4.359375 0.75 6.640625q1.6875 2.28125 5.484375 2.28125q3.0625 0 5.375 -1.4375q2.328125 -1.4375 2.890625 -4.078125l0.421875 -1.96875l-6.625 0l1.28125 -6.09375l13.59375 0l-4.125 19.4375l-6.203125 0l1.1875 -5.5625l-0.234375 0q-1.03125 2.734375 -3.796875 4.46875q-2.765625 1.71875 -6.609375 1.71875zm52.990814 -35.8125l-1.390625 6.484375l-9.734375 0l-6.09375 28.703125l-7.296875 0l6.09375 -28.703125l-9.75 0l1.390625 -6.484375l26.78125 0z" fill-rule="nonzero"/></g></svg>