<?xml version="1.0" encoding="UTF-8" standalone="no"?>
<svg
   version="1.1"
   viewBox="0.0 0.0 960.0 540.0"
   fill="none"
   stroke="none"
   stroke-linecap="square"
   stroke-miterlimit="10"
   id="svg143"
   sodipodi:docname="logo.svg"
   inkscape:version="1.2.1 (9c6d41e, 2022-07-14)"
   xmlns:inkscape="http://www.inkscape.org/namespaces/inkscape"
   xmlns:sodipodi="http://sodipodi.sourceforge.net/DTD/sodipodi-0.dtd"
   xmlns="http://www.w3.org/2000/svg"
   xmlns:svg="http://www.w3.org/2000/svg">
  <defs
     id="defs147">
    <clipPath
       clipPathUnits="userSpaceOnUse"
       id="clipPath552">
      <g
         id="g556">
        <path
           d="M 0,0 H 960 V 540 H 0 Z"
           clip-rule="nonzero"
           id="path554" />
      </g>
    </clipPath>
    <clipPath
       clipPathUnits="userSpaceOnUse"
       id="clipPath558">
      <g
         id="g562">
        <path
           d="M 0,0 H 960 V 540 H 0 Z"
           clip-rule="nonzero"
           id="path560" />
      </g>
    </clipPath>
    <clipPath
       clipPathUnits="userSpaceOnUse"
       id="clipPath564">
      <g
         id="g568">
        <path
           d="M 0,0 H 960 V 540 H 0 Z"
           clip-rule="nonzero"
           id="path566" />
      </g>
    </clipPath>
  </defs>
  <sodipodi:namedview
     id="namedview145"
     pagecolor="#ffffff"
     bordercolor="#000000"
     borderopacity="0.25"
     inkscape:showpageshadow="2"
     inkscape:pageopacity="0.0"
     inkscape:pagecheckerboard="0"
     inkscape:deskcolor="#d1d1d1"
     showgrid="false"
     showguides="false"
     inkscape:zoom="3.1339434"
     inkscape:cx="485.49057"
     inkscape:cy="295.95301"
     inkscape:window-width="1710"
     inkscape:window-height="1045"
     inkscape:window-x="0"
     inkscape:window-y="39"
     inkscape:window-maximized="0"
     inkscape:current-layer="svg143" />
  <path
     fill="#000000"
     d="m 462.55157,298.80377 13.39063,-35.20313 -2.5,-7.17187 h -6.28125 v -7.35936 h 5.64062 c 2.6875,0 4.72396,0.48438 6.10938,1.45313 1.38541,0.95833 2.5052,2.67187 3.35937,5.14062 l 11.49846,35.88886 7.11398,-1e-5 -1.72185,7.25176 h -3.90621 c -2.6875,0 -4.72396,0.27414 -6.10938,-0.68419 -1.38542,-0.95833 -2.50521,-3.43039 -3.35937,-5.90956 l -3,-8.70312 -2.5,-9.01563 h -0.70313 l -2.5625,9.01563 -5.5,15.29687 z"
     fill-rule="nonzero"
     id="path135"
     sodipodi:nodetypes="cccccscccccssccccccc"
     clip-path="url(#clipPath564)" />
  <path
     fill="#000000"
     fill-opacity="0"
     d="m 476.182,256.28864 h 108.37793 v 77.5748 H 476.182 Z"
     fill-rule="evenodd"
     id="path137"
     clip-path="url(#clipPath558)" />
  <path
     fill="#000000"
     d="m 515.3907,311.99365 c -2.75,0 -3.0625,-0.69271 -4.9375,-2.07813 -1.875,-1.39583 -3.15104,-3.45312 -3.82812,-6.17187 -0.66667,-2.72917 0.22449,-5.58567 1.03699,-9.38776 0.82291,-3.875 1.24746,-6.26307 3.14329,-9.02349 1.90625,-2.77083 3.69591,-4.47708 7.80813,-6.80109 6.42497,-2.59482 7.73142,-2.19846 15.59045,-2.27588 l -1.79726,6.03724 c -7.92904,-0.0676 -5.64998,-0.097 -9.23478,0.24073 -2.56974,0.60148 -2.67744,1.37013 -4.40625,2.33387 -1.76042,1.52084 -2.94792,3.18888 -3.5625,6.09513 l -1.20312,5.625 c -0.61459,2.90625 -2.36459,5.11979 -1.25,6.64062 1.125,1.52084 2.95312,2.28125 5.48437,2.28125 2.04167,0 3.83333,-0.47916 5.375,-1.4375 1.55208,-0.95833 2.51563,-2.3177 2.89063,-4.07812 l 0.42187,-1.96875 h -6.625 l 1.28125,-6.09375 h 13.59375 l -2.0625,9.71875 -2.0625,9.71875 h -6.20312 l 1.1875,-5.5625 v 0 c -0.6875,1.82292 -2.1875,3.3125 -4.03125,4.46875 -1.84375,1.14583 -4.04688,1.71875 -6.60938,1.71875 z"
     fill-rule="nonzero"
     id="path139"
     sodipodi:nodetypes="cccccccccccccsccccccccccccsc"
     clip-path="url(#clipPath552)"
     transform="translate(-4)" />
  <path
     d="m 558.53029,276.25543 -1.39062,6.48437 h -9.73438 l -6.09375,28.70313 h -7.29687 l 6.09375,-28.70313 h -9.75 l 1.39062,-6.48437 z"
     style="fill:#000000;fill-rule:nonzero"
     id="path578" />
</svg>
